<mxfile host="app.diagrams.net" modified="2024-05-09T23:58:33.364Z" agent="Mozilla/5.0 (Windows NT 10.0; Win64; x64) AppleWebKit/537.36 (KHTML, like Gecko) Chrome/124.0.0.0 Safari/537.36" etag="jcGEQY9Lpv-3vZ343tz7" version="24.3.1" type="device">
  <diagram name="PÃ¡gina-1" id="h8XtxC3mKd14TjxK0ex-">
    <mxGraphModel dx="275" dy="141" grid="1" gridSize="10" guides="1" tooltips="1" connect="1" arrows="1" fold="1" page="1" pageScale="1" pageWidth="827" pageHeight="1169" math="0" shadow="0">
      <root>
        <mxCell id="0" />
        <mxCell id="1" parent="0" />
        <mxCell id="3KZ4XUWjrb2zWmeXvO8T-4" value="" style="endArrow=none;dashed=1;html=1;rounded=0;entryX=0.5;entryY=1;entryDx=0;entryDy=0;" edge="1" parent="1">
          <mxGeometry width="50" height="50" relative="1" as="geometry">
            <mxPoint x="443" y="810" as="sourcePoint" />
            <mxPoint x="444" y="355" as="targetPoint" />
          </mxGeometry>
        </mxCell>
        <mxCell id="3KZ4XUWjrb2zWmeXvO8T-6" value="Conta" style="shape=ext;double=1;rounded=0;whiteSpace=wrap;html=1;" vertex="1" parent="1">
          <mxGeometry x="571" y="275" width="120" height="80" as="geometry" />
        </mxCell>
        <mxCell id="3KZ4XUWjrb2zWmeXvO8T-7" value="" style="endArrow=none;dashed=1;html=1;rounded=0;entryX=0.5;entryY=1;entryDx=0;entryDy=0;" edge="1" target="3KZ4XUWjrb2zWmeXvO8T-6" parent="1">
          <mxGeometry width="50" height="50" relative="1" as="geometry">
            <mxPoint x="630" y="810" as="sourcePoint" />
            <mxPoint x="941" y="435" as="targetPoint" />
          </mxGeometry>
        </mxCell>
        <mxCell id="3KZ4XUWjrb2zWmeXvO8T-23" value="" style="shape=umlActor;verticalLabelPosition=bottom;verticalAlign=top;html=1;outlineConnect=0;" vertex="1" parent="1">
          <mxGeometry x="137" y="285" width="30" height="60" as="geometry" />
        </mxCell>
        <mxCell id="3KZ4XUWjrb2zWmeXvO8T-24" value="" style="endArrow=none;dashed=1;html=1;rounded=0;entryX=0.5;entryY=0.5;entryDx=0;entryDy=0;entryPerimeter=0;" edge="1" parent="1" target="3KZ4XUWjrb2zWmeXvO8T-23">
          <mxGeometry width="50" height="50" relative="1" as="geometry">
            <mxPoint x="150" y="800" as="sourcePoint" />
            <mxPoint x="137" y="565" as="targetPoint" />
          </mxGeometry>
        </mxCell>
        <mxCell id="3KZ4XUWjrb2zWmeXvO8T-29" value="" style="group" vertex="1" connectable="0" parent="1">
          <mxGeometry x="260" y="275" width="80" height="80" as="geometry" />
        </mxCell>
        <mxCell id="3KZ4XUWjrb2zWmeXvO8T-27" value="" style="ellipse;whiteSpace=wrap;html=1;aspect=fixed;" vertex="1" parent="3KZ4XUWjrb2zWmeXvO8T-29">
          <mxGeometry width="80" height="80" as="geometry" />
        </mxCell>
        <mxCell id="3KZ4XUWjrb2zWmeXvO8T-28" value="" style="endArrow=none;html=1;rounded=0;" edge="1" parent="3KZ4XUWjrb2zWmeXvO8T-29">
          <mxGeometry width="50" height="50" relative="1" as="geometry">
            <mxPoint y="80" as="sourcePoint" />
            <mxPoint as="targetPoint" />
          </mxGeometry>
        </mxCell>
        <mxCell id="3KZ4XUWjrb2zWmeXvO8T-30" value="" style="curved=1;endArrow=none;html=1;rounded=0;endFill=0;startArrow=classic;startFill=1;" edge="1" parent="1">
          <mxGeometry width="50" height="50" relative="1" as="geometry">
            <mxPoint x="463" y="290" as="sourcePoint" />
            <mxPoint x="463" y="290" as="targetPoint" />
            <Array as="points">
              <mxPoint x="473" y="300" />
              <mxPoint x="480" y="310" />
              <mxPoint x="480" y="330" />
              <mxPoint x="473" y="340" />
              <mxPoint x="463" y="350" />
              <mxPoint x="440" y="355" />
              <mxPoint x="420" y="345" />
              <mxPoint x="410" y="325" />
              <mxPoint x="410" y="305" />
              <mxPoint x="423" y="290" />
              <mxPoint x="433" y="285" />
              <mxPoint x="460" y="285" />
            </Array>
          </mxGeometry>
        </mxCell>
        <mxCell id="3KZ4XUWjrb2zWmeXvO8T-31" value="" style="endArrow=none;dashed=1;html=1;rounded=0;entryX=0.5;entryY=1;entryDx=0;entryDy=0;" edge="1" parent="1" target="3KZ4XUWjrb2zWmeXvO8T-27">
          <mxGeometry width="50" height="50" relative="1" as="geometry">
            <mxPoint x="300" y="800" as="sourcePoint" />
            <mxPoint x="300" y="385" as="targetPoint" />
          </mxGeometry>
        </mxCell>
      </root>
    </mxGraphModel>
  </diagram>
</mxfile>
